inDegrees=yes
name=ik_S46_A12_T02
DataType=double
version=3
OpenSimVersion=4.3-2021-08-27-4bc7ad9
endheader
time	pelvis_tilt	pelvis_list	pelvis_rotation	pelvis_tx	pelvis_ty	pelvis_tz	hip_flexion_r	hip_adduction_r	hip_rotation_r	knee_angle_r	knee_angle_r_beta	ankle_angle_r	subtalar_angle_r	mtp_angle_r	hip_flexion_l	hip_adduction_l	hip_rotation_l	knee_angle_l	knee_angle_l_beta	ankle_angle_l	subtalar_angle_l	mtp_angle_l	lumbar_extension	lumbar_bending	lumbar_rotation	arm_flex_r	arm_add_r	arm_rot_r	elbow_flex_r	pro_sup_r	wrist_flex_r	wrist_dev_r	arm_flex_l	arm_add_l	arm_rot_l	elbow_flex_l	pro_sup_l	wrist_flex_l	wrist_dev_l
4.319999999999996	1.383638582636569	1.386942392369236	41.91476811517094	0	0.9399999999999999	0	21.84322335390347	-7.891856069590398	-6.798932215598914	24.38867442959302	0.4256626689933481	0	0	0	21.84322335390347	-7.891856069590398	-6.798932215598914	24.38867442959302	0.4256626689933481	0	0	0	2.215684185567039	1.023168528715545	4.758551159549186	6.104652051130043	-8.969952127279324	-9.19637395055805	5.726542636641345	103.8148300879917	0	0	44.99572554962544	-27.47154637327004	-12.10747238820939	8.811811843670437	72.4411558838456	0	0
4.339999999999995	1.397990589281678	1.408549657471572	41.57293551508536	0	0.9399999999999999	0	22.18371631939557	-7.961913927492198	-6.878217284263927	24.82011416168412	0.4331927128422601	0	0	0	22.18371631939557	-7.961913927492198	-6.878217284263927	24.82011416168412	0.4331927128422601	0	0	0	2.213853273220475	1.059153298504797	5.063307467739905	6.063505401156235	-8.988737817699992	-9.199015128545748	5.782764591258503	103.563890147726	0	0	47.93113033281678	-27.75317689577046	-9.22056621310686	11.93773306684684	68.81981162960683	0	0
4.359999999999995	1.358053317077124	1.442940348622081	41.33502708528372	0	0.9399999999999999	0	22.83945926090674	-8.086672837481853	-7.025313958138582	25.64984550566231	0.447674256701677	0	0	0	22.83945926090674	-8.086672837481853	-7.025313958138582	25.64984550566231	0.447674256701677	0	0	0	2.200568950326168	1.093708875698393	5.16128474467229	6.097821247508317	-9.057624060946962	-9.054801463040832	5.85590725947821	103.2643202651604	0	0	47.81915288028441	-27.84133778765843	-9.105281188875196	17.48126144829868	66.58702886336928	0	0
4.379999999999995	1.322868593636246	1.456472061913386	40.86090028795887	0	0.9399999999999999	0	23.10709921329725	-8.140092706187353	-7.086631705544413	25.98511246712031	0.4535257690522762	0	0	0	23.10709921329725	-8.140092706187353	-7.086631705544413	25.98511246712031	0.4535257690522762	0	0	0	2.169048632130934	1.148071915524371	5.421849668909343	6.26035147477979	-9.150068975839574	-9.250250144641932	5.900266963355213	103.1469927938698	0	0	50.79203091437446	-28.19099661895255	-6.384654102397548	20.58831206964602	63.11194156956272	0	0
4.399999999999994	1.313004356743225	1.463666629611043	40.32988188645349	0	0.9399999999999999	0	23.35544842035292	-8.189080153500989	-7.143200956753615	26.2950271893511	0.4589348013556072	0	0	0	23.35544842035292	-8.189080153500989	-7.143200956753615	26.2950271893511	0.4589348013556072	0	0	0	2.144528455381139	1.20087774791715	5.855667194433853	6.349466784408969	-9.233481384211059	-9.350039736921069	5.993828591469133	102.9444506413502	0	0	57.0494906554347	-28.04899676430585	-1.430440722265824	20.6535473095962	59.36639099383035	0	0
4.419999999999994	1.291219073421393	1.486724913206735	39.92747454896442	0	0.9399999999999999	0	23.36773244654648	-8.192380293481149	-7.14654485358033	26.30742897984087	0.4591512534327961	0	0	0	23.36773244654648	-8.192380293481149	-7.14654485358033	26.30742897984087	0.4591512534327961	0	0	0	2.140316520883853	1.24212014415027	6.051336861887115	6.424771579226949	-9.30107387156354	-9.384137268865222	5.976031147927426	102.8909062439501	0	0	60.17732313894214	-27.98540490124769	0.4807834794373664	22.65822304290985	57.46426858657826	0	0
4.439999999999993	1.231800237694662	1.502535596706789	39.45378340566067	0	0.9399999999999999	0	23.40301594498597	-8.20181163927001	-7.156128169500753	26.34306454281406	0.45977321133748	0	0	0	23.40301594498597	-8.20181163927001	-7.156128169500753	26.34306454281406	0.45977321133748	0	0	0	2.103361301912265	1.294568560410169	6.307799711922969	6.549616292182285	-9.396676956453616	-9.421745381924495	6.013722755740226	102.7969352570305	0	0	63.39539537079099	-28.04906240586165	2.161332175804235	28.50611016791102	55.07796627500981	0	0
4.459999999999993	1.175463856562948	1.487903096336713	39.10707307343568	0	0.9399999999999999	0	23.41475476135107	-8.204947158530855	-7.159314850075211	26.35493051360915	0.4599803115967999	0	0	0	23.41475476135107	-8.204947158530855	-7.159314850075211	26.35493051360915	0.4599803115967999	0	0	0	2.044799651483208	1.332519642184735	6.46518730693978	6.725444711240199	-9.45319912541083	-9.463980148079676	6.029590471866743	102.6908917472141	0	0	66.56620937484456	-27.5990536143537	3.121398580269375	25.62314243423981	55.34982536740407	0	0
4.479999999999992	1.146516339933324	1.481513687922132	38.80607728470514	0	0.9399999999999999	0	23.42799051447142	-8.208484540614132	-7.16290983184378	26.36829098797628	0.4602134958641346	0	0	0	23.42799051447142	-8.208484540614132	-7.16290983184378	26.36829098797628	0.4602134958641346	0	0	0	2.015298189026173	1.353021247849725	6.669590855034976	6.813911348780944	-9.477025029134165	-9.601880236201941	6.009256131415001	102.7719868608203	0	0	69.74687452713422	-27.09422044485856	4.319678835410811	26.60980627350366	54.56033326234994	0	0
4.499999999999992	1.083636251059787	1.468020000287108	38.44288261851152	0	0.9399999999999999	0	23.43958239446082	-8.211578153388723	-7.166056201692668	26.3799950780436	0.4604177707717592	0	0	0	23.43958239446082	-8.211578153388723	-7.166056201692668	26.3799950780436	0.4604177707717592	0	0	0	1.953231173991764	1.391891603789539	6.846271281969615	6.988212363887773	-9.528409402981387	-9.631862769337658	5.993628521533318	102.6672801003435	0	0	72.75361714396919	-26.46299691796808	5.387064370715669	27.35153441509747	53.8920385890582	0	0
4.519999999999992	1.011276428552069	1.442394628734434	38.04450848962292	0	0.9399999999999999	0	23.45135243469101	-8.21471681278228	-7.169249986210657	26.39187623345481	0.460625136052626	0	0	0	23.45135243469101	-8.21471681278228	-7.169249986210657	26.39187623345481	0.460625136052626	0	0	0	1.876397100415067	1.425716695758777	7.008154425199406	7.174852503945552	-9.551521523485182	-9.615863333268205	5.941122753843366	102.5844541913026	0	0	75.64441782329681	-25.73501798238794	6.455328951938463	27.91213049249099	53.1772978163456	0	0
